<?xml version="1.0" encoding="UTF-8" standalone="no"?>
<!-- Created with Inkscape (http://www.inkscape.org/) -->

<svg
   xmlns:dc="http://purl.org/dc/elements/1.1/"
   xmlns:cc="http://creativecommons.org/ns#"
   xmlns:rdf="http://www.w3.org/1999/02/22-rdf-syntax-ns#"
   xmlns:svg="http://www.w3.org/2000/svg"
   xmlns="http://www.w3.org/2000/svg"
   xmlns:xlink="http://www.w3.org/1999/xlink"
   xmlns:sodipodi="http://sodipodi.sourceforge.net/DTD/sodipodi-0.dtd"
   xmlns:inkscape="http://www.inkscape.org/namespaces/inkscape"
   width="48"
   height="48"
   id="svg2"
   sodipodi:version="0.32"
   inkscape:version="0.48.3.1 r9886"
   version="1.0"
   sodipodi:docname="view-refresh.svg"
   inkscape:export-filename="/home/nihilus/coding/openspace/img/refresh.png"
   inkscape:export-xdpi="60"
   inkscape:export-ydpi="60">
  <defs
     id="defs4">
    <linearGradient
       inkscape:collect="always"
       id="linearGradient2218">
      <stop
         style="stop-color:#000000;stop-opacity:1;"
         offset="0"
         id="stop2220" />
      <stop
         style="stop-color:#000000;stop-opacity:0;"
         offset="1"
         id="stop2222" />
    </linearGradient>
    <linearGradient
       id="linearGradient2204">
      <stop
         style="stop-color:#000000;stop-opacity:0"
         offset="0"
         id="stop2206" />
      <stop
         id="stop2212"
         offset="0.5"
         style="stop-color:#000000;stop-opacity:0;" />
      <stop
         style="stop-color:#000000;stop-opacity:0.06060606;"
         offset="0.75"
         id="stop2214" />
      <stop
         style="stop-color:#000000;stop-opacity:0.24892704"
         offset="1"
         id="stop2208" />
    </linearGradient>
    <linearGradient
       id="linearGradient2196"
       inkscape:collect="always">
      <stop
         id="stop2198"
         offset="0"
         style="stop-color:#ffffff;stop-opacity:1;" />
      <stop
         id="stop2200"
         offset="1"
         style="stop-color:#ffffff;stop-opacity:0" />
    </linearGradient>
    <linearGradient
       inkscape:collect="always"
       id="linearGradient2184">
      <stop
         style="stop-color:#ffffff;stop-opacity:1;"
         offset="0"
         id="stop2186" />
      <stop
         style="stop-color:#ffffff;stop-opacity:0;"
         offset="1"
         id="stop2188" />
    </linearGradient>
    <radialGradient
       inkscape:collect="always"
       xlink:href="#linearGradient2196"
       id="radialGradient2190"
       cx="23.821341"
       cy="19.220688"
       fx="23.821341"
       fy="11.559587"
       r="20.724566"
       gradientUnits="userSpaceOnUse" />
    <radialGradient
       inkscape:collect="always"
       xlink:href="#linearGradient2184"
       id="radialGradient2194"
       gradientUnits="userSpaceOnUse"
       cx="21.955513"
       cy="41.559357"
       fx="21.955513"
       fy="43.898674"
       r="20.724566"
       gradientTransform="matrix(0.592713,-6.494147e-8,6.494147e-8,0.592713,10.80802,15.56962)" />
    <radialGradient
       inkscape:collect="always"
       xlink:href="#linearGradient2204"
       id="radialGradient2210"
       cx="20.053436"
       cy="19.070505"
       fx="20.053436"
       fy="19.070505"
       r="20.724566"
       gradientUnits="userSpaceOnUse"
       gradientTransform="matrix(1.602242,-1.930651e-16,1.930651e-16,1.602242,-13.98654,-13.89271)" />
    <radialGradient
       inkscape:collect="always"
       xlink:href="#linearGradient2218"
       id="radialGradient2224"
       cx="24.416874"
       cy="42.401985"
       fx="24.416874"
       fy="46.508305"
       r="23.702232"
       gradientTransform="matrix(1,0,0,0.226131,1.626303e-18,32.8136)"
       gradientUnits="userSpaceOnUse" />
  </defs>
  <sodipodi:namedview
     id="base"
     pagecolor="#ffffff"
     bordercolor="#666666"
     borderopacity="1.0"
     inkscape:pageopacity="0.0"
     inkscape:pageshadow="2"
     inkscape:zoom="4"
     inkscape:cx="17.801949"
     inkscape:cy="13.687771"
     inkscape:document-units="px"
     inkscape:current-layer="layer1"
     inkscape:showpageshadow="false"
     showgrid="false"
     inkscape:grid-bbox="false"
     inkscape:window-width="1020"
     inkscape:window-height="729"
     inkscape:window-x="0"
     inkscape:window-y="18"
     showborder="false"
     showguides="true"
     inkscape:guide-bbox="true"
     inkscape:window-maximized="0" />
  <metadata
     id="metadata7">
    <rdf:RDF>
      <cc:Work
         rdf:about="">
        <dc:format>image/svg+xml</dc:format>
        <dc:type
           rdf:resource="http://purl.org/dc/dcmitype/StillImage" />
        <dc:title></dc:title>
        <dc:creator>
          <cc:Agent>
            <dc:title>Silvestre Herrera</dc:title>
          </cc:Agent>
        </dc:creator>
        <cc:license
           rdf:resource="http://creativecommons.org/licenses/GPL/2.0/" />
      </cc:Work>
      <cc:License
         rdf:about="http://creativecommons.org/licenses/GPL/2.0/">
        <cc:permits
           rdf:resource="http://web.resource.org/cc/Reproduction" />
        <cc:permits
           rdf:resource="http://web.resource.org/cc/Distribution" />
        <cc:requires
           rdf:resource="http://web.resource.org/cc/Notice" />
        <cc:permits
           rdf:resource="http://web.resource.org/cc/DerivativeWorks" />
        <cc:requires
           rdf:resource="http://web.resource.org/cc/ShareAlike" />
        <cc:requires
           rdf:resource="http://web.resource.org/cc/SourceCode" />
      </cc:License>
    </rdf:RDF>
  </metadata>
  <g
     inkscape:label="Capa 1"
     inkscape:groupmode="layer"
     id="layer1"
     style="display:inline">
    <path
       sodipodi:type="arc"
       style="opacity:0.37229435;fill:url(#radialGradient2224);fill-opacity:1;stroke:none"
       id="path2216"
       sodipodi:cx="24.416874"
       sodipodi:cy="42.401985"
       sodipodi:rx="23.702232"
       sodipodi:ry="5.3598013"
       d="m 48.119106,42.401985 a 23.702232,5.3598013 0 1 1 -47.40446443,0 23.702232,5.3598013 0 1 1 47.40446443,0 z"
       transform="matrix(0.885993,0,0,1.026156,2.366833,-1.011074)" />
    <path
       sodipodi:type="arc"
       style="fill:#2268c9;fill-opacity:1;stroke:#304b70;stroke-width:1.01082706;stroke-linecap:round;stroke-linejoin:miter;stroke-miterlimit:4;stroke-opacity:1;stroke-dasharray:none;stroke-dashoffset:0"
       id="path1307"
       sodipodi:cx="23.821341"
       sodipodi:cy="23.821341"
       sodipodi:rx="20.724566"
       sodipodi:ry="20.724566"
       d="m 44.545906,23.821341 a 20.724566,20.724566 0 1 1 -41.4491309,0 20.724566,20.724566 0 1 1 41.4491309,0 z"
       transform="matrix(0.989171,0,0,0.989408,0.441812,0.431267)" />
    <path
       style="font-size:8px;font-style:normal;font-variant:normal;font-weight:normal;font-stretch:normal;text-align:start;line-height:125%;writing-mode:lr-tb;text-anchor:start;fill:#646464;fill-opacity:1;stroke:none;font-family:Bitstream Vera Sans"
       d="M 3.4960938,62.703125 C 3.4960899,62.174482 3.386715,61.76042 3.1679688,61.460938 2.9518196,61.158858 2.6536428,61.007816 2.2734375,61.007812 1.8932269,61.007816 1.593748,61.158858 1.375,61.460938 1.1588526,61.76042 1.0507798,62.174482 1.0507812,62.703125 c -1.4e-6,0.528647 0.1080714,0.944012 0.3242188,1.246094 0.218748,0.29948 0.5182269,0.449219 0.8984375,0.449219 0.3802053,0 0.6783821,-0.149739 0.8945313,-0.449219 0.2187462,-0.302082 0.3281211,-0.717447 0.328125,-1.246094 M 1.0507812,61.175781 c 0.1510401,-0.260412 0.3411441,-0.453121 0.5703126,-0.578125 0.2317685,-0.1276 0.5078099,-0.191402 0.828125,-0.191406 0.5312466,4e-6 0.9622357,0.210942 1.2929687,0.632812 0.3333289,0.421879 0.4999954,0.976566 0.5,1.664063 -4.6e-6,0.687501 -0.1666711,1.242188 -0.5,1.664063 C 3.4114545,64.789063 2.9804654,65 2.4492188,65 2.1289037,65 1.8528623,64.9375 1.6210938,64.8125 1.3919253,64.684896 1.2018213,64.490886 1.0507812,64.230469 l 0,0.65625 -0.7226562,0 0,-6.078125 0.7226562,0 0,2.367187 m 6.203125,4.117188 c -0.2031273,0.520832 -0.4010438,0.860676 -0.59375,1.019531 -0.1927101,0.158853 -0.4505223,0.23828 -0.7734374,0.238281 l -0.5742188,0 0,-0.601562 0.421875,0 c 0.1979154,-10e-7 0.3515611,-0.04688 0.4609375,-0.140625 0.1093734,-0.09375 0.230467,-0.315105 0.3632813,-0.664063 L 6.6875,64.816406 4.9179688,60.511719 l 0.7617187,0 1.3671875,3.421875 1.3671875,-3.421875 0.7617187,0 -1.921875,4.78125 m 8.9882818,-6.046875 0,0.769531 C 15.942704,59.872401 15.660153,59.76563 15.394531,59.695312 15.128903,59.625005 14.872393,59.589849 14.625,59.589844 c -0.42969,5e-6 -0.761721,0.08334 -0.996094,0.25 -0.231772,0.166671 -0.347657,0.40365 -0.347656,0.710937 -10e-7,0.257817 0.07682,0.453129 0.230469,0.585938 0.156248,0.130212 0.450519,0.23568 0.882812,0.316406 l 0.476563,0.09766 c 0.588538,0.111983 1.022131,0.309899 1.300781,0.59375 0.281246,0.281253 0.42187,0.658856 0.421875,1.132813 -5e-6,0.565105 -0.190109,0.99349 -0.570312,1.285156 C 15.64583,64.854167 15.091143,65 14.359375,65 c -0.276044,0 -0.570314,-0.03125 -0.882813,-0.09375 -0.309897,-0.0625 -0.631511,-0.154948 -0.964843,-0.277344 l 0,-0.8125 c 0.320311,0.179689 0.634113,0.315105 0.941406,0.40625 0.30729,0.09115 0.609373,0.13672 0.90625,0.136719 0.450518,10e-7 0.798174,-0.08854 1.042969,-0.265625 0.244788,-0.177082 0.367183,-0.429686 0.367187,-0.757812 -4e-6,-0.286457 -0.08854,-0.510415 -0.265625,-0.671876 -0.174482,-0.161455 -0.462242,-0.282549 -0.863281,-0.363281 l -0.480469,-0.09375 c -0.588543,-0.117184 -1.014324,-0.300778 -1.277344,-0.550781 -0.263021,-0.249997 -0.394531,-0.597652 -0.394531,-1.042969 0,-0.51562 0.180989,-0.92187 0.542969,-1.21875 0.364582,-0.296869 0.865883,-0.445306 1.503906,-0.445312 0.273435,6e-6 0.55208,0.02475 0.835938,0.07422 0.28385,0.04948 0.574215,0.123703 0.871094,0.222656 m 1.566406,1.265625 0.71875,0 0,4.375 -0.71875,0 0,-4.375 m 0,-1.703125 0.71875,0 0,0.910156 -0.71875,0 0,-0.910156 m 2.21875,0 0.71875,0 0,6.078125 -0.71875,0 0,-6.078125 m 1.703125,1.703125 0.761719,0 1.367187,3.671875 1.367187,-3.671875 0.761719,0 -1.640625,4.375 -0.976562,0 -1.640625,-4.375 m 8.992187,2.007812 0,0.351563 -3.304687,0 c 0.03125,0.494793 0.179686,0.872397 0.445312,1.132812 0.268228,0.257813 0.640623,0.386719 1.117188,0.386719 0.276038,0 0.542965,-0.03385 0.800781,-0.101563 0.260413,-0.06771 0.518225,-0.16927 0.773438,-0.304687 l 0,0.679687 c -0.257817,0.109376 -0.52214,0.192709 -0.792969,0.25 C 29.490882,64.971354 29.216143,65 28.9375,65 c -0.697919,0 -1.251304,-0.203125 -1.660156,-0.609375 -0.406251,-0.406249 -0.609376,-0.955728 -0.609375,-1.648437 -1e-6,-0.716143 0.192707,-1.283851 0.578125,-1.703126 0.388019,-0.42187 0.910154,-0.632808 1.566406,-0.632812 0.588538,4e-6 1.053382,0.190108 1.394531,0.570312 0.343746,0.377608 0.515621,0.891931 0.515625,1.542969 m -0.71875,-0.210937 c -0.0052,-0.393226 -0.115889,-0.707028 -0.332031,-0.941406 -0.213545,-0.234372 -0.497399,-0.351559 -0.851563,-0.351563 -0.401043,4e-6 -0.722658,0.113285 -0.964843,0.339844 -0.239585,0.226566 -0.377606,0.545576 -0.414063,0.957031 l 2.5625,-0.0039 m 4.671875,-1.667969 0,0.679687 c -0.203128,-0.104162 -0.414065,-0.182287 -0.632812,-0.234374 -0.218753,-0.05208 -0.445315,-0.07812 -0.679688,-0.07813 -0.356772,4e-6 -0.625001,0.05469 -0.804687,0.164063 -0.177085,0.109379 -0.265626,0.273441 -0.265625,0.492187 -10e-7,0.16667 0.0638,0.298181 0.191406,0.394532 0.127603,0.09375 0.384113,0.183596 0.769531,0.269531 L 33.5,62.382812 c 0.510414,0.109378 0.872393,0.264326 1.085938,0.464844 0.216142,0.197919 0.324214,0.475262 0.324218,0.832032 -4e-6,0.40625 -0.161462,0.727865 -0.484375,0.964843 C 34.105466,64.88151 33.66406,65 33.101562,65 32.867186,65 32.622394,64.97656 32.367188,64.92969 32.114582,64.88542 31.847656,64.81771 31.566406,64.726564 l 0,-0.742187 c 0.265625,0.138022 0.527343,0.242188 0.785156,0.3125 0.257812,0.06771 0.51302,0.101563 0.765626,0.101563 0.338539,0 0.598955,-0.05729 0.78125,-0.171876 0.182288,-0.117186 0.273434,-0.281249 0.273437,-0.492187 -3e-6,-0.195311 -0.06641,-0.345051 -0.199219,-0.449219 -0.130211,-0.104165 -0.417971,-0.204425 -0.863281,-0.300781 l -0.25,-0.05859 c -0.445314,-0.09375 -0.766928,-0.236977 -0.964844,-0.429687 -0.197917,-0.19531 -0.296875,-0.462237 -0.296875,-0.800782 0,-0.411454 0.145833,-0.729162 0.4375,-0.953124 0.291666,-0.223954 0.705728,-0.335934 1.242188,-0.335938 0.265622,4e-6 0.515622,0.01954 0.75,0.05859 0.234372,0.03907 0.450517,0.09766 0.648437,0.175781 m 2.078125,-1.371094 0,1.242188 1.480469,0 0,0.558593 -1.480469,0 0,2.375 c -10e-7,0.356772 0.04818,0.585939 0.144532,0.6875 0.09896,0.101564 0.298175,0.152345 0.597656,0.152344 l 0.738281,0 0,0.601563 -0.738281,0 c -0.554689,0 -0.937502,-0.102865 -1.148438,-0.308594 -0.210938,-0.208333 -0.316407,-0.585937 -0.316406,-1.132813 l 0,-2.375 -0.527344,0 0,-0.558593 0.527344,0 0,-1.242188 0.722656,0 m 4.964844,1.914063 c -0.08073,-0.04687 -0.169274,-0.08073 -0.265625,-0.101563 -0.09375,-0.02343 -0.197919,-0.03515 -0.3125,-0.03516 -0.406252,4e-6 -0.718752,0.132816 -0.9375,0.398437 -0.216147,0.263025 -0.32422,0.64193 -0.324219,1.136719 l 0,2.304688 -0.722656,0 0,-4.375 0.722656,0 0,0.679687 c 0.15104,-0.265621 0.347655,-0.462235 0.589844,-0.589844 0.242185,-0.130203 0.536456,-0.195308 0.882812,-0.195312 0.04948,4e-6 0.104164,0.0039 0.164063,0.01172 0.05989,0.0052 0.126299,0.01433 0.199219,0.02734 l 0.0039,0.738282 m 4.488281,1.335937 0,0.351563 -3.304687,0 c 0.03125,0.494793 0.179686,0.872397 0.445312,1.132812 0.268228,0.257813 0.640623,0.386719 1.117188,0.386719 0.276038,0 0.542965,-0.03385 0.800781,-0.101563 0.260413,-0.06771 0.518225,-0.16927 0.773437,-0.304687 l 0,0.679687 c -0.257816,0.109376 -0.522139,0.192709 -0.792968,0.25 C 44.975257,64.971354 44.700518,65 44.421875,65 c -0.697919,0 -1.251304,-0.203125 -1.660156,-0.609375 -0.406251,-0.406249 -0.609376,-0.955728 -0.609375,-1.648437 -10e-7,-0.716143 0.192707,-1.283851 0.578125,-1.703126 0.388019,-0.42187 0.910154,-0.632808 1.566406,-0.632812 0.588538,4e-6 1.053382,0.190108 1.394531,0.570312 0.343746,0.377608 0.515621,0.891931 0.515625,1.542969 m -0.71875,-0.210937 c -0.0052,-0.393226 -0.115889,-0.707028 -0.332031,-0.941406 -0.213545,-0.234372 -0.497399,-0.351559 -0.851562,-0.351563 -0.401044,4e-6 -0.722659,0.113285 -0.964844,0.339844 -0.239585,0.226566 -0.377606,0.545576 -0.414063,0.957031 l 2.5625,-0.0039 m 4.460938,-3.253906 0.789062,0 0,2.390624 2.867188,0 0,-2.390624 0.789062,0 0,5.832031 -0.789062,0 0,-2.777344 -2.867188,0 0,2.777344 -0.789062,0 0,-5.832031 m 9.726562,3.464843 0,0.351563 -3.304687,0 c 0.03125,0.494793 0.179686,0.872397 0.445312,1.132812 0.268228,0.257813 0.640623,0.386719 1.117188,0.386719 0.276038,0 0.542965,-0.03385 0.800781,-0.101563 0.260413,-0.06771 0.518225,-0.16927 0.773437,-0.304687 l 0,0.679687 c -0.257816,0.109376 -0.522139,0.192709 -0.792968,0.25 C 58.444007,64.971354 58.169268,65 57.890625,65 c -0.697919,0 -1.251304,-0.203125 -1.660156,-0.609375 -0.406251,-0.406249 -0.609376,-0.955728 -0.609375,-1.648437 -10e-7,-0.716143 0.192707,-1.283851 0.578125,-1.703126 0.388019,-0.42187 0.910154,-0.632808 1.566406,-0.632812 0.588538,4e-6 1.053382,0.190108 1.394531,0.570312 0.343746,0.377608 0.515621,0.891931 0.515625,1.542969 m -0.71875,-0.210937 c -0.0052,-0.393226 -0.115889,-0.707028 -0.332031,-0.941406 -0.213545,-0.234372 -0.497399,-0.351559 -0.851562,-0.351563 -0.401044,4e-6 -0.722659,0.113285 -0.964844,0.339844 -0.239585,0.226566 -0.377606,0.545576 -0.414063,0.957031 l 2.5625,-0.0039 M 63.375,61.1836 c -0.08073,-0.04687 -0.169274,-0.08073 -0.265625,-0.101563 -0.09375,-0.02343 -0.197919,-0.03515 -0.3125,-0.03516 -0.406252,4e-6 -0.718752,0.132816 -0.9375,0.398437 -0.216147,0.263025 -0.32422,0.64193 -0.324219,1.136719 l 0,2.304688 -0.722656,0 0,-4.375 0.722656,0 0,0.679687 c 0.15104,-0.265621 0.347655,-0.462235 0.589844,-0.589844 0.242185,-0.130203 0.536456,-0.195308 0.882812,-0.195312 0.04948,4e-6 0.104164,0.0039 0.164063,0.01172 0.05989,0.0052 0.126299,0.01433 0.199219,0.02734 l 0.0039,0.738282 m 3.28125,0 c -0.08073,-0.04687 -0.169274,-0.08073 -0.265625,-0.101563 -0.09375,-0.02343 -0.197919,-0.03515 -0.3125,-0.03516 -0.406252,4e-6 -0.718752,0.132816 -0.9375,0.398437 -0.216147,0.263025 -0.32422,0.64193 -0.324219,1.136719 l 0,2.304688 -0.722656,0 0,-4.375 0.722656,0 0,0.679687 c 0.15104,-0.265621 0.347655,-0.462235 0.589844,-0.589844 0.242185,-0.130203 0.536456,-0.195308 0.882812,-0.195312 0.04948,4e-6 0.104164,0.0039 0.164063,0.01172 0.05989,0.0052 0.126299,0.01433 0.199219,0.02734 l 0.0039,0.738282 m 4.488281,1.335937 0,0.351563 -3.304687,0 c 0.03125,0.494793 0.179686,0.872397 0.445312,1.132812 0.268228,0.257813 0.640623,0.386719 1.117188,0.386719 0.276038,0 0.542965,-0.03385 0.800781,-0.101563 0.260413,-0.06771 0.518225,-0.16927 0.773437,-0.304687 l 0,0.679687 c -0.257816,0.109376 -0.522139,0.192709 -0.792968,0.25 C 69.912757,64.971354 69.638018,65 69.359375,65 c -0.697919,0 -1.251304,-0.203125 -1.660156,-0.609375 -0.406251,-0.406249 -0.609376,-0.955728 -0.609375,-1.648437 -10e-7,-0.716143 0.192707,-1.283851 0.578125,-1.703126 0.388019,-0.42187 0.910154,-0.632808 1.566406,-0.632812 0.588538,4e-6 1.053382,0.190108 1.394531,0.570312 0.343746,0.377608 0.515621,0.891931 0.515625,1.542969 m -0.71875,-0.210937 c -0.0052,-0.393226 -0.115889,-0.707028 -0.332031,-0.941406 -0.213545,-0.234372 -0.497399,-0.351559 -0.851562,-0.351563 -0.401044,4e-6 -0.722659,0.113285 -0.964844,0.339844 -0.239585,0.226566 -0.377606,0.545576 -0.414063,0.957031 l 2.5625,-0.0039 m 4.417969,-1.125 c -0.08073,-0.04687 -0.169274,-0.08073 -0.265625,-0.101563 -0.09375,-0.02343 -0.197919,-0.03515 -0.3125,-0.03516 -0.406252,4e-6 -0.718752,0.132816 -0.9375,0.398437 -0.216147,0.263025 -0.32422,0.64193 -0.324219,1.136719 l 0,2.304688 -0.722656,0 0,-4.375 0.722656,0 0,0.679687 c 0.15104,-0.265621 0.347655,-0.462235 0.589844,-0.589844 0.242185,-0.130203 0.536456,-0.195308 0.882812,-0.195312 0.04948,4e-6 0.104164,0.0039 0.164063,0.01172 0.05989,0.0052 0.126299,0.01433 0.199219,0.02734 l 0.0039,0.738282 m 2.734375,1.503906 c -0.580731,2e-6 -0.983075,0.06641 -1.207031,0.199219 -0.22396,0.132814 -0.335939,0.359376 -0.335938,0.679687 -10e-7,0.25521 0.08333,0.458334 0.25,0.609375 0.169269,0.148438 0.398436,0.222657 0.6875,0.222657 0.398435,0 0.717445,-0.140625 0.957032,-0.421876 0.242184,-0.283852 0.363277,-0.660154 0.363281,-1.128906 l 0,-0.160156 -0.714844,0 m 1.433594,-0.296875 0,2.496094 -0.71875,0 0,-0.664063 c -0.16406,0.265626 -0.368487,0.46224 -0.613275,0.589844 C 77.434893,64.9375 77.135414,65 76.78125,65 c -0.447918,0 -0.804689,-0.125 -1.070312,-0.375 -0.263022,-0.252604 -0.394532,-0.589843 -0.394532,-1.011719 0,-0.492185 0.164062,-0.863279 0.492188,-1.113281 0.330728,-0.249997 0.822915,-0.374997 1.476562,-0.375 l 1.007813,0 0,-0.07031 c -4e-6,-0.330727 -0.109379,-0.585935 -0.328125,-0.765626 -0.216149,-0.182287 -0.520836,-0.273433 -0.914063,-0.273437 -0.250002,4e-6 -0.493491,0.02995 -0.730469,0.08984 -0.23698,0.0599 -0.464844,0.149743 -0.683593,0.269531 l 0,-0.664062 c 0.26302,-0.101559 0.518228,-0.177079 0.765625,-0.226563 0.247394,-0.05208 0.488279,-0.07812 0.722656,-0.07813 0.63281,4e-6 1.105465,0.164067 1.417969,0.492188 0.312496,0.328128 0.468746,0.825523 0.46875,1.492187"
       id="text2257"
       inkscape:connector-curvature="0" />
    <path
       style="fill:#ffffff;fill-opacity:1;stroke:none"
       d="m 23.129454,10.999705 c -4.182817,0.325518 -7.807976,2.939696 -9.766433,6.645165 l -3.29175,-2.002255 1.251409,9.28582 9.195138,-2.930837 -3.373364,-2.060291 c 1.276455,-2.447149 3.674973,-4.144623 6.447477,-4.294692 0.133479,-0.0072 0.272918,0 0.408069,0 3.074712,0 5.736216,1.581868 7.018774,4.333551 l 4.651978,0 C 34.172169,14.606557 29.518714,10.999705 24,10.999705 c -0.183957,0 -0.362114,-0.0086 -0.544091,0 -0.07586,0.0036 -0.142143,-0.0051 -0.217636,0 -0.04044,0.0027 -0.06848,-0.0031 -0.108819,0 z m 12.568502,11.142984 -8.215774,4.207637 3.40057,1.654036 C 29.553839,30.603157 26.969019,32.35709 24,32.35709 c -3.074713,10e-7 -5.736216,-1.581868 -7.018774,-4.33355 l -4.651978,0 C 13.827831,33.393148 18.481286,37 24,37 c 4.729709,0 8.810062,-2.877824 10.82741,-7.080437 l 3.101319,1.508945 -2.230773,-9.285819 z"
       id="path2209"
       sodipodi:nodetypes="ccccccssccsssccccsccsccc"
       inkscape:connector-curvature="0" />
    <path
       style="font-size:8px;font-style:normal;font-variant:normal;font-weight:bold;font-stretch:normal;text-align:start;line-height:125%;writing-mode:lr-tb;text-anchor:start;fill:#000000;fill-opacity:1;stroke:none;font-family:Bitstream Vera Sans"
       d="m 0,52.054688 1.5117188,0 1.546875,4.304687 1.5429687,-4.304687 1.5117187,0 -2.1601562,5.832031 -1.7929688,0 L 0,52.054688 m 6.8203125,1.457031 1.3984375,0 0,4.375 -1.3984375,0 0,-4.375 m 0,-1.703125 1.3984375,0 0,1.140625 -1.3984375,0 0,-1.140625 M 13.9375,55.6875 l 0,0.398438 -3.269531,0 c 0.03385,0.328126 0.152342,0.574219 0.355469,0.738281 0.203122,0.164063 0.486976,0.246094 0.851562,0.246093 0.294268,10e-7 0.595049,-0.04297 0.902344,-0.128906 0.309891,-0.08854 0.627599,-0.221353 0.953125,-0.398437 l 0,1.078125 c -0.330734,0.125 -0.661463,0.21875 -0.992188,0.28125 C 12.407549,57.967448 12.07682,58 11.746094,58 10.954425,58 10.33854,57.799479 9.8984375,57.398438 9.4609369,56.994793 9.2421872,56.429689 9.2421875,55.703125 c -3e-7,-0.713539 0.2148432,-1.274736 0.6445313,-1.683594 0.4322902,-0.40885 1.0260392,-0.613277 1.7812502,-0.613281 0.687496,4e-6 1.236975,0.207036 1.648437,0.621094 0.414058,0.414066 0.621089,0.967451 0.621094,1.660156 M 12.5,55.222656 c -4e-6,-0.265622 -0.07813,-0.479163 -0.234375,-0.640625 -0.153649,-0.164059 -0.355472,-0.24609 -0.605469,-0.246093 -0.270836,3e-6 -0.490887,0.07683 -0.660156,0.230468 -0.169273,0.151045 -0.274741,0.369795 -0.316406,0.65625 l 1.816406,0 m 2.117188,-1.710937 1.359374,0 0.734376,3.015625 0.738281,-3.015625 1.167969,0 0.734374,2.984375 0.738282,-2.984375 1.359375,0 -1.152344,4.375 -1.527344,0 -0.738281,-3.007813 -0.734375,3.007813 -1.527344,0 -1.152343,-4.375 m 12.761718,1.128906 c 0.315101,3e-6 0.540361,-0.05859 0.675782,-0.175781 0.138017,-0.117184 0.207027,-0.309892 0.207031,-0.578125 -4e-6,-0.265621 -0.06901,-0.455725 -0.207031,-0.570313 -0.135421,-0.114578 -0.360681,-0.17187 -0.675782,-0.171875 l -0.632812,0 0,1.496094 0.632812,0 m -0.632812,1.039063 0,2.207031 -1.503906,0 0,-5.832031 2.296874,0 c 0.768226,5e-6 1.330725,0.128911 1.6875,0.386718 0.35937,0.257818 0.539058,0.66537 0.539063,1.222656 -5e-6,0.385421 -0.09376,0.701827 -0.28125,0.949219 -0.184901,0.247399 -0.464848,0.429691 -0.839844,0.546875 0.205725,0.04688 0.389319,0.153649 0.550781,0.320313 0.164058,0.164064 0.329423,0.414064 0.496094,0.75 l 0.816406,1.65625 -1.601562,0 -0.710938,-1.449219 c -0.143232,-0.291665 -0.289065,-0.490883 -0.4375,-0.597656 -0.145836,-0.106769 -0.341148,-0.160154 -0.585937,-0.160156 l -0.425781,0 m 8.957031,0.0078 0,0.398438 -3.269531,0 c 0.03385,0.328126 0.152342,0.574219 0.355468,0.738281 0.203123,0.164063 0.486977,0.246094 0.851563,0.246093 0.294268,10e-7 0.595049,-0.04297 0.902344,-0.128906 0.309891,-0.08854 0.627599,-0.221353 0.953125,-0.398437 l 0,1.078125 c -0.330734,0.125 -0.661463,0.21875 -0.992188,0.28125 C 34.173174,57.967448 33.842445,58 33.511719,58 c -0.791669,0 -1.407554,-0.200521 -1.847657,-0.601562 -0.4375,-0.403645 -0.65625,-0.968749 -0.65625,-1.695313 0,-0.713539 0.214844,-1.274736 0.644532,-1.683594 0.43229,-0.40885 1.026039,-0.613277 1.78125,-0.613281 0.687496,4e-6 1.236975,0.207036 1.648437,0.621094 0.414058,0.414066 0.621089,0.967451 0.621094,1.660156 m -1.4375,-0.464844 c -4e-6,-0.265622 -0.07813,-0.479163 -0.234375,-0.640625 -0.153649,-0.164059 -0.355472,-0.24609 -0.605469,-0.246093 -0.270836,3e-6 -0.490887,0.07683 -0.660156,0.230468 -0.169273,0.151045 -0.274741,0.369795 -0.316406,0.65625 l 1.816406,0 m 5.386719,-3.414062 0,0.917968 -0.773438,0 c -0.197919,6e-6 -0.33594,0.03646 -0.414062,0.109376 -0.07813,0.07032 -0.11719,0.194015 -0.117188,0.371093 l 0,0.304688 1.195313,0 0,1 -1.195313,0 0,3.375 -1.398437,0 0,-3.375 -0.695313,0 0,-1 0.695313,0 0,-0.304688 c -10e-7,-0.476557 0.132811,-0.828119 0.398437,-1.054687 0.265624,-0.229161 0.677082,-0.343744 1.234375,-0.34375 l 1.070313,0 m 3.855468,2.894531 c -0.122399,-0.05729 -0.244795,-0.09895 -0.367187,-0.125 -0.119795,-0.02864 -0.240889,-0.04297 -0.363281,-0.04297 -0.359378,4e-6 -0.636722,0.115889 -0.832032,0.347656 -0.19271,0.22917 -0.289064,0.558597 -0.289062,0.988282 l 0,2.015625 -1.398438,0 0,-4.375 1.398438,0 0,0.71875 c 0.179685,-0.286455 0.385414,-0.494788 0.617188,-0.625 0.234372,-0.132808 0.514319,-0.199215 0.839843,-0.199219 0.04687,4e-6 0.09765,0.0026 0.152344,0.0078 0.05468,0.0026 0.134111,0.01042 0.238281,0.02344 l 0.0039,1.265625 m 5.070313,0.984375 0,0.398438 -3.269531,0 c 0.03385,0.328126 0.152342,0.574219 0.355468,0.738281 0.203123,0.164063 0.486977,0.246094 0.851563,0.246093 0.294268,10e-7 0.595049,-0.04297 0.902344,-0.128906 0.309891,-0.08854 0.627599,-0.221353 0.953125,-0.398437 l 0,1.078125 c -0.330734,0.125 -0.661463,0.21875 -0.992188,0.28125 C 47.048174,57.967448 46.717445,58 46.386719,58 c -0.791669,0 -1.407554,-0.200521 -1.847657,-0.601562 -0.4375,-0.403645 -0.65625,-0.968749 -0.65625,-1.695313 0,-0.713539 0.214844,-1.274736 0.644532,-1.683594 0.43229,-0.40885 1.026039,-0.613277 1.78125,-0.613281 0.687496,4e-6 1.236975,0.207036 1.648437,0.621094 0.414058,0.414066 0.621089,0.967451 0.621094,1.660156 m -1.4375,-0.464844 c -4e-6,-0.265622 -0.07813,-0.479163 -0.234375,-0.640625 -0.153649,-0.164059 -0.355472,-0.24609 -0.605469,-0.246093 -0.270836,3e-6 -0.490887,0.07683 -0.660156,0.230468 -0.169273,0.151045 -0.274741,0.369795 -0.316406,0.65625 l 1.816406,0 m 5.925781,-1.574218 0,1.0625 c -0.299483,-0.124997 -0.588545,-0.218747 -0.867187,-0.28125 -0.278649,-0.0625 -0.54167,-0.09375 -0.789063,-0.09375 -0.265627,3e-6 -0.463543,0.03386 -0.59375,0.101562 -0.127606,0.06511 -0.191408,0.16667 -0.191406,0.304688 -2e-6,0.111982 0.04818,0.197919 0.144531,0.257812 0.09896,0.0599 0.274738,0.104169 0.527344,0.132812 l 0.246094,0.03516 c 0.716142,0.09115 1.197913,0.240888 1.445312,0.449219 0.247392,0.208335 0.37109,0.535157 0.371094,0.980468 -4e-6,0.466147 -0.171879,0.816407 -0.515625,1.050782 C 52.499996,57.882813 51.986976,58 51.304688,58 51.015623,58 50.716144,57.97656 50.40625,57.92969 50.098957,57.88542 49.782551,57.81771 49.457031,57.726564 l 0,-1.0625 c 0.278645,0.135418 0.563801,0.236981 0.855469,0.304688 0.294269,0.06771 0.592446,0.101563 0.894531,0.101562 0.273435,10e-7 0.479164,-0.03776 0.617188,-0.113281 0.138018,-0.07552 0.207028,-0.187499 0.207031,-0.335937 -3e-6,-0.124999 -0.04818,-0.217447 -0.144531,-0.277344 -0.09375,-0.0625 -0.282555,-0.110675 -0.566407,-0.144531 l -0.246093,-0.03125 c -0.622398,-0.07812 -1.058595,-0.222655 -1.308594,-0.433594 -0.250001,-0.210935 -0.375,-0.531247 -0.375,-0.960937 0,-0.463539 0.158854,-0.807288 0.476563,-1.03125 0.317707,-0.223954 0.804685,-0.335934 1.460937,-0.335938 0.25781,4e-6 0.528643,0.01954 0.8125,0.05859 0.283851,0.03907 0.592444,0.100264 0.925781,0.183594 m 5.730469,1.574218 0,2.664063 -1.40625,0 0,-0.433594 0,-1.597656 c -4e-6,-0.38281 -0.0091,-0.645831 -0.02734,-0.789063 -0.01563,-0.143226 -0.04427,-0.248695 -0.08594,-0.316406 -0.05469,-0.09114 -0.12891,-0.161455 -0.222656,-0.210938 -0.09375,-0.05208 -0.200524,-0.07812 -0.320313,-0.07812 -0.291669,3e-6 -0.520836,0.113284 -0.6875,0.339843 -0.166669,0.223961 -0.250002,0.535159 -0.25,0.933594 l 0,2.152344 -1.398437,0 0,-6.078125 1.398437,0 0,2.34375 c 0.210935,-0.255205 0.434893,-0.442704 0.671875,-0.5625 0.236976,-0.122392 0.498695,-0.18359 0.785156,-0.183594 0.505205,4e-6 0.888017,0.154952 1.148438,0.464844 0.263016,0.309899 0.394526,0.76042 0.394531,1.351562"
       id="text3098"
       inkscape:connector-curvature="0" />
  </g>
  <g
     inkscape:groupmode="layer"
     id="layer2"
     inkscape:label="lights"
     sodipodi:insensitive="true">
    <path
       sodipodi:type="arc"
       style="opacity:0.75;fill:url(#radialGradient2190);fill-opacity:1;stroke:none;stroke-width:1.06165099;stroke-linecap:round;stroke-linejoin:miter;stroke-miterlimit:4;stroke-dasharray:none;stroke-dashoffset:0;stroke-opacity:1"
       id="path2182"
       sodipodi:cx="23.821341"
       sodipodi:cy="23.821341"
       sodipodi:rx="20.724566"
       sodipodi:ry="20.724566"
       d="M 44.545906 23.821341 A 20.724566 20.724566 0 1 1  3.0967751,23.821341 A 20.724566 20.724566 0 1 1  44.545906 23.821341 z"
       transform="matrix(0.965038,0,0,0.965038,1.01149,1.011484)" />
    <path
       sodipodi:type="arc"
       style="opacity:0.75;fill:url(#radialGradient2194);fill-opacity:1;stroke:none;stroke-width:1.06165099;stroke-linecap:round;stroke-linejoin:miter;stroke-miterlimit:4;stroke-dasharray:none;stroke-dashoffset:0;stroke-opacity:1"
       id="path2192"
       sodipodi:cx="23.821341"
       sodipodi:cy="23.821341"
       sodipodi:rx="20.724566"
       sodipodi:ry="20.724566"
       d="M 44.545906 23.821341 A 20.724566 20.724566 0 1 1  3.0967751,23.821341 A 20.724566 20.724566 0 1 1  44.545906 23.821341 z"
       transform="matrix(0.965038,0,0,0.965038,1.01149,1.011484)" />
    <path
       sodipodi:type="arc"
       style="opacity:0.75;fill:url(#radialGradient2210);fill-opacity:1;stroke:none;stroke-width:1.06165099;stroke-linecap:round;stroke-linejoin:miter;stroke-miterlimit:4;stroke-dasharray:none;stroke-dashoffset:0;stroke-opacity:1"
       id="path2202"
       sodipodi:cx="23.821341"
       sodipodi:cy="23.821341"
       sodipodi:rx="20.724566"
       sodipodi:ry="20.724566"
       d="M 44.545906 23.821341 A 20.724566 20.724566 0 1 1  3.0967751,23.821341 A 20.724566 20.724566 0 1 1  44.545906 23.821341 z"
       transform="matrix(0.965038,0,0,0.965038,1.01149,1.011484)" />
    <path
       sodipodi:type="arc"
       style="opacity:1;fill:none;fill-opacity:1;stroke:#ffffff;stroke-width:1.06180155;stroke-linecap:round;stroke-linejoin:miter;stroke-miterlimit:4;stroke-dasharray:none;stroke-dashoffset:0;stroke-opacity:0.63948502"
       id="path2233"
       sodipodi:cx="23.821341"
       sodipodi:cy="23.821341"
       sodipodi:rx="20.724566"
       sodipodi:ry="20.724566"
       d="M 44.545906 23.821341 A 20.724566 20.724566 0 1 1  3.0967751,23.821341 A 20.724566 20.724566 0 1 1  44.545906 23.821341 z"
       transform="matrix(0.941793,0,0,0.941798,1.571204,1.571072)" />
  </g>
</svg>
